<svg fill="none" height="48" viewBox="0 0 48 48" width="48" xmlns="http://www.w3.org/2000/svg" xmlns:xlink="http://www.w3.org/1999/xlink"><filter id="a" color-interpolation-filters="sRGB" filterUnits="userSpaceOnUse" height="54" width="48" x="0" y="-3"><feFlood flood-opacity="0" result="BackgroundImageFix"/><feBlend in="SourceGraphic" in2="BackgroundImageFix" mode="normal" result="shape"/><feColorMatrix in="SourceAlpha" result="hardAlpha" type="matrix" values="0 0 0 0 0 0 0 0 0 0 0 0 0 0 0 0 0 0 127 0"/><feOffset dy="-3"/><feGaussianBlur stdDeviation="1.5"/><feComposite in2="hardAlpha" k2="-1" k3="1" operator="arithmetic"/><feColorMatrix type="matrix" values="0 0 0 0 0 0 0 0 0 0 0 0 0 0 0 0 0 0 0.1 0"/><feBlend in2="shape" mode="normal" result="effect1_innerShadow_3051_46855"/><feColorMatrix in="SourceAlpha" result="hardAlpha" type="matrix" values="0 0 0 0 0 0 0 0 0 0 0 0 0 0 0 0 0 0 127 0"/><feOffset dy="3"/><feGaussianBlur stdDeviation="1.5"/><feComposite in2="hardAlpha" k2="-1" k3="1" operator="arithmetic"/><feColorMatrix type="matrix" values="0 0 0 0 1 0 0 0 0 1 0 0 0 0 1 0 0 0 0.1 0"/><feBlend in2="effect1_innerShadow_3051_46855" mode="normal" result="effect2_innerShadow_3051_46855"/><feColorMatrix in="SourceAlpha" result="hardAlpha" type="matrix" values="0 0 0 0 0 0 0 0 0 0 0 0 0 0 0 0 0 0 127 0"/><feMorphology in="SourceAlpha" operator="erode" radius="1" result="effect3_innerShadow_3051_46855"/><feOffset/><feComposite in2="hardAlpha" k2="-1" k3="1" operator="arithmetic"/><feColorMatrix type="matrix" values="0 0 0 0 0.0627451 0 0 0 0 0.0941176 0 0 0 0 0.156863 0 0 0 0.24 0"/><feBlend in2="effect2_innerShadow_3051_46855" mode="normal" result="effect3_innerShadow_3051_46855"/></filter><filter id="b" color-interpolation-filters="sRGB" filterUnits="userSpaceOnUse" height="42" width="36" x="6" y="5.25"><feFlood flood-opacity="0" result="BackgroundImageFix"/><feColorMatrix in="SourceAlpha" result="hardAlpha" type="matrix" values="0 0 0 0 0 0 0 0 0 0 0 0 0 0 0 0 0 0 127 0"/><feMorphology in="SourceAlpha" operator="erode" radius="1.5" result="effect1_dropShadow_3051_46855"/><feOffset dy="2.25"/><feGaussianBlur stdDeviation="2.25"/><feComposite in2="hardAlpha" operator="out"/><feColorMatrix type="matrix" values="0 0 0 0 0.141176 0 0 0 0 0.141176 0 0 0 0 0.141176 0 0 0 0.1 0"/><feBlend in2="BackgroundImageFix" mode="normal" result="effect1_dropShadow_3051_46855"/><feBlend in="SourceGraphic" in2="effect1_dropShadow_3051_46855" mode="normal" result="shape"/></filter><linearGradient id="c" gradientUnits="userSpaceOnUse" x1="24" x2="26" y1=".000001" y2="48"><stop offset="0" stop-color="#fff" stop-opacity="0"/><stop offset="1" stop-color="#fff" stop-opacity=".12"/></linearGradient><linearGradient id="d" gradientUnits="userSpaceOnUse" x1="24" x2="24" y1="9.47144" y2="38.5845"><stop offset="0" stop-color="#fff" stop-opacity=".8"/><stop offset="1" stop-color="#fff" stop-opacity=".5"/></linearGradient><linearGradient id="e" gradientUnits="userSpaceOnUse" x1="24" x2="24" y1="0" y2="48"><stop offset="0" stop-color="#fff" stop-opacity=".12"/><stop offset="1" stop-color="#fff" stop-opacity="0"/></linearGradient><clipPath id="f"><rect height="48" rx="12" width="48"/></clipPath><g filter="url(#a)"><g clip-path="url(#f)"><rect fill="#155eef" height="48" rx="12" width="48"/><path d="m0 0h48v48h-48z" fill="url(#c)"/><g fill="url(#d)" filter="url(#b)"><path d="m26.5903 32.0391c-2.3863-.8864-4.8408-1.0227-7.0907-.4091-1.5682.4091-3.0682 1.2273-4.4318 2.25l-.9545.8181-.2727.2728.6136.5454c.0682 0 .0682.0682.1364.1364.1363.1363.2727.2045.4772.3409l.4091.2727.4091-.3409c.0682-.0682.2045-.2045.3409-.2727 1.2272-1.0227 2.5908-1.7045 4.0226-2.0454 1.8409-.4773 3.8182-.4091 5.7954.3409 1.6363.6136 4.9772 1.3636 8.9998-.3409l.1364-.0682.2045-.2046c0-.0681.0682-.0682.1364-.1363.3409-.4091.6818-.8182.9545-1.2955l1.3637-2.1136-2.1818 1.2273c-3.2045 1.7727-6.1363 2.1136-9.0681 1.0227z"/><path d="m17.2499 24.6758c1.8408-.4773 3.8181-.4091 5.7953.3409 2.1818.8182 7.7726 1.9772 14.0452-3.6818l1.3636-1.3636-.1363-.3409c-.0682-.2727-.2046-.6136-.3409-.9545l-.3409-.9545-.6818.6818c-.0682.1363-.2046.2045-.3409.3409-3 3.0681-7.6363 6.2044-12.9544 4.2954-2.3863-.8864-4.8408-1.0227-7.0907-.4091-2.1818.6136-4.0909 1.7727-5.8636 3.409v-.0682l-1.02269 1.0909c0 .0682-.06817.0682-.13635.1364l-.20456.2045.06819.2727c.06818.3409.20454.6818.27272 1.0227l.40909 1.0909.6818-.8863c.0682-.1364.2045-.2045.2727-.3409 1.4318-1.2954 3.4091-3.1363 6.2045-3.8863z"/><path d="m10.6364 23.4484c1.5681-1.6364 3.3408-2.6591 5.2498-3.2045 1.8409-.4773 3.8182-.4091 5.7954.3409 6.1363 2.2499 11.4544-1.4318 13.7725-3.409l.8863-.8864.3409-.2727-.2727-.4091c-.2045-.2045-.3409-.4773-.5454-.75l-.4091-.5454-.4773.4772c-.0682.0682-.2045.2046-.2727.2728-2.8636 2.7272-7.2953 5.5226-12.3407 3.6135-2.3863-.8863-4.8408-1.0227-7.0908-.409-1.4318.409-2.7954 1.0908-4.159 1.9772l-1.43179 1.1591c-.13636.1363-.20455.2045-.34091.3409l-.13635.1363v.2046c-.06818.4772-.06818.9545-.13637 1.3636l-.06818 1.7045 1.1591-1.2273c.1363-.1363.2727-.3409.4773-.4772z"/><path d="m28.5681 36.6754c-.2045-.0681-.3409-.1363-.5454-.2045-2.3864-.8864-4.8409-1.0227-7.0908-.4091-.4773.1364-.9546.2727-1.4318.4773l-1.6364.75-.409.2045 1.3636.4773c.4091.1363.8181.2727 1.2272.4091l.2046.0682.2045-.0682c.2046-.0682.4091-.2046.6136-.2046.1364 0 .2728-.0682.4091-.1363 1.6364-.4091 3.409-.4091 5.3181.2045.2045.0682.3409.1364.5455.2046l.3409.1363.2045-.0682c.4773-.1363 1.0227-.2727 1.4318-.4772l1.909-.6818-1.9772-.4773c-.2045-.0682-.4773-.1364-.6818-.2046z"/><path d="m39 22.5621-1.0227 1.0227c-.1364.1364-.2727.2727-.4091.4091-2.7954 2.659-7.2953 5.5226-12.3407 3.6135-2.3863-.8863-4.8408-1.0226-7.0908-.409-2.1136.6136-4.0226 1.7045-5.7271 3.3408l-.8864.9546-.2727.3409.2727.409c.2046.2728.3409.4773.4773.75l.4091.6137.4772-.6137c.0682-.0681.2046-.2045.2727-.2727 1.6364-1.7727 3.4091-2.8636 5.4545-3.409 1.8409-.4773 3.8181-.4091 5.7953.3409 1.7046.6136 3.4773.8182 5.25.6136 3.1363-.3409 6.2726-2.1136 8.5907-4.0908.1364-.1364.2727-.2046.4091-.3409l.2045-.2046v-.2045c0-.4091.0682-.8864.0682-1.2954z"/><path d="m13.0903 16.2896c.4091-.2045.8864-.3409 1.2954-.4773 1.8409-.4772 3.8182-.4091 5.7954.3409 1.2954.4773 2.5909.6818 4.0227.6818 2.8635 0 5.7271-1.0227 8.3862-2.9999l1.3636-1.0909-.6136-.4773c-.2046-.2045-.4773-.409-.75-.5454l-.4091-.2727-.3409.2727c-.1364.0682-.2046.2045-.3409.2727-3.6136 2.7272-7.2272 3.4772-10.6362 2.1818-2.4545-.8863-4.909-1.0909-7.3635-.3409-.2046.0682-.4091.1363-.6818.2045l-.1364.0682-.2045.2045c0 .0682-.0682.0682-.1364.1364-.2727.4091-.6136.75-.8863 1.1591l-1.2955 1.9772 2.1136-1.0909c.3409 0 .6137-.1363.8182-.2045z"/><path d="m18.6817 11.6532.2045.0682c.8863.3409 2.25.6818 3.9545.6818 1.7727 0 3.4772-.4091 5.1817-1.0909l2.1136-1.0227-1.4318-.47726c-.4091-.13636-.8182-.27272-1.2954-.3409h-.2046l-.2045.06816c-.2045.06818-.4091.20456-.6136.27274-2.0455.74996-4.0909.88636-6.0681.34086-.2046-.0681-.4091-.1363-.6136-.20451l-.2046-.06819-.2045.06819c-.4091.13631-.8182.27271-1.2273.47731l-1.5681.6818 1.6363.4772c.1364-.0682.3409 0 .5455.0682z"/></g></g><rect height="46" rx="11" stroke="url(#e)" stroke-width="2" width="46" x="1" y="1"/></g></svg>