<?xml version="1.0" encoding="UTF-8"?>
<svg version="1.1" xmlns="http://www.w3.org/2000/svg" width="512" height="512">
<path d="M0 0 C1.59500383 -0.0071286 3.19000519 -0.01483135 4.78500366 -0.02307129 C8.11146178 -0.03642592 11.43768296 -0.03812716 14.76416016 -0.03222656 C18.13496626 -0.02752032 21.50483118 -0.04134013 24.87548828 -0.07324219 C54.87371355 -0.35387009 82.11015758 1.86281491 104.72314453 23.94140625 C113.83879565 33.2993835 119.87968519 43.63775173 125.2109375 55.46875 C125.70867676 56.55704102 126.20641602 57.64533203 126.71923828 58.76660156 C128.39414991 62.43328662 130.05624954 66.10541177 131.7109375 69.78125 C132.52292603 71.58082153 132.52292603 71.58082153 133.35131836 73.41674805 C134.10167358 75.10731323 134.10167358 75.10731323 134.8671875 76.83203125 C135.31900391 77.84563721 135.77082031 78.85924316 136.23632812 79.90356445 C137.2109375 82.46875 137.2109375 82.46875 137.2109375 85.46875 C138.21745865 85.46208817 139.2239798 85.45542633 140.26100159 85.44856262 C149.80707155 85.38740265 159.35310108 85.3426114 168.89932346 85.31331348 C173.8056062 85.29774415 178.71172912 85.27666805 183.61791992 85.24243164 C188.36418639 85.2095234 193.11030041 85.19183157 197.85667229 85.18411827 C199.65571424 85.17863063 201.45474909 85.16791707 203.25372505 85.15155983 C218.96577843 85.01454886 232.83901092 86.5107552 247.2109375 93.46875 C248.13519531 93.91089844 249.05945313 94.35304688 250.01171875 94.80859375 C270.45979777 105.24955065 284.39516093 123.20426974 291.984375 144.546875 C295.00158776 153.97561727 295.50935 162.60926766 295.50146484 172.46508789 C295.507459 173.96753266 295.51426656 175.46997437 295.52182007 176.97241211 C295.5394023 181.03275799 295.54417229 185.09301943 295.54545164 189.15339971 C295.54687882 191.69822188 295.55115922 194.24302298 295.55644608 196.78783989 C295.57492437 205.68922143 295.58311991 214.59054328 295.58154297 223.49194336 C295.58034388 231.75061563 295.60140616 240.0090256 295.6330303 248.26763159 C295.65931136 255.3881864 295.66990526 262.5086562 295.66863215 269.62925905 C295.66812575 273.8685295 295.6736278 278.10756686 295.69498825 282.34678841 C295.71457002 286.34181795 295.71436146 290.33639693 295.69995499 294.33144379 C295.69788984 295.78410195 295.70242782 297.23678982 295.7146759 298.68939781 C295.81847527 311.8712926 293.81348776 325.0486267 287.4609375 336.78125 C287.11587158 337.44020264 286.77080566 338.09915527 286.4152832 338.77807617 C274.88984285 360.24600763 256.90617979 374.85917948 233.80646992 382.23668003 C222.66501292 385.27434877 211.5136442 384.89823416 200.04956055 384.87280273 C197.71895014 384.87851304 195.38834252 384.88547985 193.05773926 384.89360046 C186.75800825 384.911475 180.45841698 384.91037406 174.15866828 384.90465808 C168.21683628 384.90116435 162.27502523 384.90914268 156.33319781 384.91601873 C143.84423703 384.92971182 131.35533908 384.92432889 118.86637978 384.91283352 C107.47423335 384.90290715 96.08224948 384.91583713 84.69012811 384.93976771 C72.95557368 384.96422937 61.22109473 384.97374913 49.48651534 384.96711498 C42.91332436 384.96375541 36.34026759 384.96609381 29.76709557 384.98336601 C23.58222069 384.99890994 17.39765445 384.99479711 11.21279144 384.97606087 C8.95385863 384.9723954 6.69490256 384.97542321 4.43599129 384.98594666 C-11.13162815 385.05288646 -26.00020633 384.33884072 -40.0390625 376.78125 C-40.69471191 376.4394873 -41.35036133 376.09772461 -42.02587891 375.74560547 C-59.2156043 366.50827313 -71.97398139 352.99172266 -80.9765625 335.84375 C-81.45826904 334.95888916 -81.45826904 334.95888916 -81.94970703 334.05615234 C-89.33752784 319.3835966 -89.36977044 303.98135525 -89.30664062 287.96679688 C-89.31207146 285.63574285 -89.31919947 283.30469226 -89.32788086 280.97364807 C-89.34600267 274.68644487 -89.33909285 268.39950637 -89.32636452 262.11229897 C-89.31721404 256.17811714 -89.32422766 250.24396687 -89.3300733 244.30978411 C-89.34143947 231.84081514 -89.32842798 219.37196441 -89.30687183 206.90301484 C-89.28900443 196.23818123 -89.29210966 185.57352187 -89.31054688 174.90869141 C-89.33202405 162.47987079 -89.34034121 150.05115342 -89.32809782 137.62231684 C-89.32188831 131.05923949 -89.32095697 124.49628176 -89.33424377 117.93321228 C-89.3458691 111.76059568 -89.33765498 105.58830545 -89.31466675 99.4157238 C-89.30941522 97.16163103 -89.31083176 94.9075104 -89.31971741 92.65342903 C-89.37547672 77.06115467 -88.64255749 62.19926245 -81.0390625 48.15625 C-80.69399658 47.49729736 -80.34893066 46.83834473 -79.9934082 46.15942383 C-69.16433726 25.98858907 -51.78521976 10.420403 -29.7890625 3.46875 C-19.81943228 0.56469101 -10.28597457 -0.00568662 0 0 Z " fill="#886CFE" transform="translate(152.7890625,63.53125)"/>
<path d="M0 0 C1.94712891 0.23783203 1.94712891 0.23783203 3.93359375 0.48046875 C12.11339389 2.13101928 19.48579228 4.36208702 27 8 C27.92425781 8.44214844 28.84851563 8.88429687 29.80078125 9.33984375 C50.24886027 19.78080065 64.18422343 37.73551974 71.7734375 59.078125 C74.79065026 68.50686727 75.2984125 77.14051766 75.29052734 86.99633789 C75.2965215 88.49878266 75.30332906 90.00122437 75.31088257 91.50366211 C75.3284648 95.56400799 75.33323479 99.62426943 75.33451414 103.68464971 C75.33594132 106.22947188 75.34022172 108.77427298 75.34550858 111.31908989 C75.36398687 120.22047143 75.37218241 129.12179328 75.37060547 138.02319336 C75.36940638 146.28186563 75.39046866 154.5402756 75.4220928 162.79888159 C75.44837386 169.9194364 75.45896776 177.0399062 75.45769465 184.16050905 C75.45718825 188.3997795 75.4626903 192.63881686 75.48405075 196.87803841 C75.50363252 200.87306795 75.50342396 204.86764693 75.48901749 208.86269379 C75.48695234 210.31535195 75.49149032 211.76803982 75.5037384 213.22064781 C75.60753777 226.4025426 73.60255026 239.5798767 67.25 251.3125 C66.90493408 251.97145264 66.55986816 252.63040527 66.2043457 253.30932617 C54.67890535 274.77725763 36.69524229 289.39042948 13.59553242 296.76793003 C2.45407542 299.80559877 -8.6972933 299.42948416 -20.16137695 299.40405273 C-22.49198736 299.40976304 -24.82259498 299.41672985 -27.15319824 299.42485046 C-33.45292925 299.442725 -39.75252052 299.44162406 -46.05226922 299.43590808 C-51.99410122 299.43241435 -57.93591227 299.44039268 -63.87773969 299.44726873 C-76.36670047 299.46096182 -88.85559842 299.45557889 -101.34455772 299.44408352 C-112.73670415 299.43415715 -124.12868802 299.44708713 -135.52080939 299.47101771 C-147.25536382 299.49547937 -158.98984277 299.50499913 -170.72442216 299.49836498 C-177.29761314 299.49500541 -183.87066991 299.49734381 -190.44384193 299.51461601 C-196.62871681 299.53015994 -202.81328305 299.52604711 -208.99814606 299.50731087 C-211.25707887 299.5036454 -213.51603494 299.50667321 -215.77494621 299.51719666 C-231.34448008 299.58414469 -246.20861812 298.86800812 -260.25 291.3125 C-261.22694824 290.80529419 -261.22694824 290.80529419 -262.22363281 290.2878418 C-270.64282657 285.776382 -278.00059661 280.49925424 -284 273 C-248.36 237.36 -212.72 201.72 -176 165 C-171 167 -171 167 -168.3125 168.625 C-163.17631077 170.75700308 -158.17786178 170.95849332 -152.82421875 169.34375 C-148.13839182 167.23285321 -144.86862362 164.1801508 -141.4453125 160.390625 C-140 159 -140 159 -138 159 C-137.97812622 160.7171521 -137.97812622 160.7171521 -137.95581055 162.46899414 C-137.89759239 166.73899697 -137.82036172 171.00848538 -137.73754883 175.27807617 C-137.70440974 177.12174088 -137.67634387 178.96550436 -137.65356445 180.80932617 C-137.61981488 183.46836208 -137.56749034 186.12650187 -137.51171875 188.78515625 C-137.50213387 190.01057884 -137.50213387 190.01057884 -137.49235535 191.26075745 C-137.32370462 197.90892521 -136.0270229 202.66112743 -131.5625 207.8125 C-125.97116147 212.58559386 -120.88183299 212.50241171 -113.71484375 212.3125 C-109.0281353 211.91824482 -105.62118106 211.04253873 -102 208 C-98.31675294 203.46677285 -96.92521255 199.7093522 -96.79467773 193.96582031 C-96.77473251 193.18531311 -96.75478729 192.40480591 -96.73423767 191.60064697 C-96.70916893 190.3519986 -96.70916893 190.3519986 -96.68359375 189.078125 C-96.66281265 188.21813904 -96.64203156 187.35815308 -96.62062073 186.47210693 C-96.55536261 183.73148402 -96.49635083 180.99076725 -96.4375 178.25 C-96.39429219 176.3893133 -96.35067718 174.52863602 -96.30664062 172.66796875 C-96.19970558 168.11207477 -96.09837149 163.5560866 -96 159 C-92.86130336 160.49893277 -90.60961836 162.119327 -88.0625 164.5 C-83.06650596 168.91741385 -79.16728936 170.56109168 -72.47265625 170.37109375 C-66.96774731 169.54492258 -61.93014415 167.2702382 -58.29296875 162.9921875 C-55.47067746 158.58388237 -53.84030943 154.58758099 -53.625 149.3125 C-53.55152344 148.10013672 -53.55152344 148.10013672 -53.4765625 146.86328125 C-55.07906222 138.0973686 -62.83483471 131.76962664 -68.89453125 125.8125 C-69.8521139 124.86052491 -70.80902725 123.90787616 -71.76530457 122.95458984 C-74.26242206 120.46882984 -76.76841943 117.99221947 -79.27648926 115.51751709 C-81.84283366 112.98207161 -84.40051903 110.43792274 -86.95898438 107.89453125 C-91.96429837 102.92122046 -96.97906196 97.95754078 -102 93 C-100.58676863 89.80694649 -98.89423571 87.62712348 -96.45472717 85.14019775 C-95.71901489 84.38583939 -94.98330261 83.63148102 -94.22529602 82.85426331 C-93.41755234 82.03642868 -92.60980865 81.21859406 -91.77758789 80.37597656 C-90.92689728 79.50732468 -90.07620667 78.63867279 -89.19973755 77.74369812 C-86.38043231 74.86963677 -83.55300147 72.00380382 -80.72265625 69.140625 C-80.24053326 68.65255591 -79.75841028 68.16448683 -79.2616775 67.66162777 C-74.71113632 63.05517502 -70.15696384 58.45234724 -65.59319401 53.85899734 C-59.76612983 47.99379607 -53.95836105 42.11087283 -48.17580801 36.20177293 C-44.10238243 32.04228228 -40.00797423 27.90419615 -35.89756578 23.78125167 C-33.44577357 21.32086826 -31.00400267 18.85219577 -28.58433723 16.36017609 C-25.88209764 13.57825044 -23.136991 10.84117897 -20.38696289 8.10644531 C-19.59743729 7.28051376 -18.80791168 6.45458221 -17.99446106 5.60362244 C-12.17845162 -0.07474796 -8.00496954 -1.07989572 0 0 Z " fill="#7B61E6" transform="translate(373,149)"/>
<path d="M0 0 C1.59500383 -0.0071286 3.19000519 -0.01483135 4.78500366 -0.02307129 C8.11146178 -0.03642592 11.43768296 -0.03812716 14.76416016 -0.03222656 C18.13496626 -0.02752032 21.50483118 -0.04134013 24.87548828 -0.07324219 C54.87371355 -0.35387009 82.11015758 1.86281491 104.72314453 23.94140625 C113.83879565 33.2993835 119.87968519 43.63775173 125.2109375 55.46875 C125.70867676 56.55704102 126.20641602 57.64533203 126.71923828 58.76660156 C128.39414991 62.43328662 130.05624954 66.10541177 131.7109375 69.78125 C132.52292603 71.58082153 132.52292603 71.58082153 133.35131836 73.41674805 C134.10167358 75.10731323 134.10167358 75.10731323 134.8671875 76.83203125 C135.31900391 77.84563721 135.77082031 78.85924316 136.23632812 79.90356445 C137.2109375 82.46875 137.2109375 82.46875 137.2109375 85.46875 C62.6309375 85.46875 -11.9490625 85.46875 -88.7890625 85.46875 C-88.7890625 60.87643047 -80.56219732 41.73152668 -63.6640625 23.84375 C-46.01602807 6.77992637 -24.17527911 -0.01336534 0 0 Z " fill="#5043D1" transform="translate(152.7890625,63.53125)"/>
<path d="M0 0 C0.87398438 -0.01933594 1.74796875 -0.03867188 2.6484375 -0.05859375 C12.25264564 1.54210761 18.27255147 8.51004176 24.80078125 15.1171875 C25.85767523 16.17392623 26.91523835 17.2299961 27.97343445 18.28543091 C30.17921293 20.4898313 32.37791051 22.70098503 34.5715332 24.91748047 C37.37498463 27.74936695 40.19378796 30.56536021 43.01783466 33.37669182 C45.19998906 35.5518733 47.37468377 37.7343906 49.54714012 39.9192543 C50.58364174 40.96025104 51.62221099 41.99919355 52.66292763 43.03597641 C54.11782939 44.48794874 55.56259783 45.94932213 57.00512695 47.41357422 C57.82705032 48.24090057 58.64897369 49.06822693 59.49580383 49.92062378 C63.72459746 54.91938823 65.26944779 59.35096682 65.02734375 65.78125 C64.14418893 71.61178668 61.88973864 76.48213021 57.39453125 80.36328125 C51.2176509 84.58532508 46.10501442 86.28888375 38.625 85.4375 C32.90982856 83.69032052 29.06031473 80.25910925 25.0703125 75.92578125 C23.67462567 74.32477623 23.67462567 74.32477623 21.625 73.4375 C21.64071045 74.58226807 21.6564209 75.72703613 21.67260742 76.90649414 C21.72713423 81.17611586 21.76143249 85.44570711 21.78979492 89.71557617 C21.80482988 91.55937892 21.82526333 93.40314622 21.85131836 95.24682617 C21.88793561 97.9055255 21.90477943 100.56374971 21.91796875 103.22265625 C21.93345261 104.03960464 21.94893646 104.85655304 21.96488953 105.69825745 C21.96681749 112.33728139 20.68708016 116.98529656 16.3125 122.1875 C9.95942441 127.50635398 4.42709634 128.08091635 -3.66015625 127.921875 C-9.06526587 127.21710782 -12.53050734 125.23708037 -16.375 121.4375 C-19.49131826 117.34733228 -20.50503541 113.48840762 -20.48852539 108.40332031 C-20.48844986 107.62281311 -20.48837433 106.84230591 -20.48829651 106.03814697 C-20.48313522 105.20571472 -20.47797394 104.37328247 -20.47265625 103.515625 C-20.4712413 102.65563904 -20.46982635 101.79565308 -20.46836853 100.90960693 C-20.46278097 98.16886891 -20.45023075 95.42821324 -20.4375 92.6875 C-20.43248339 90.8268241 -20.42792077 88.96614691 -20.42382812 87.10546875 C-20.41281561 82.54944754 -20.39555951 77.99348772 -20.375 73.4375 C-20.91406982 73.91525879 -21.45313965 74.39301758 -22.00854492 74.88525391 C-22.72115479 75.51351074 -23.43376465 76.14176758 -24.16796875 76.7890625 C-24.87203857 77.41119629 -25.5761084 78.03333008 -26.30151367 78.67431641 C-32.09343597 83.59946215 -36.9998666 85.89267707 -44.6796875 85.76953125 C-50.34144363 85.07206854 -54.59613317 82.57139277 -58.234375 78.20703125 C-61.46817741 73.48721964 -63.51350559 69.54411305 -63.75 63.75 C-63.79898438 62.94175781 -63.84796875 62.13351562 -63.8984375 61.30078125 C-62.24675414 52.26582673 -54.03331103 45.65433072 -47.81640625 39.48046875 C-46.7837371 38.44577439 -45.75151327 37.41063541 -44.7197113 36.37507629 C-42.56691742 34.21788407 -40.40885429 32.06614888 -38.24682617 29.91821289 C-35.48507045 27.17359066 -32.73706275 24.41565787 -29.99284458 21.65351391 C-27.86808636 19.51788709 -25.73620003 17.38949124 -23.60212517 15.26317787 C-22.5861019 14.24914587 -21.57227475 13.23290821 -20.56076241 12.21437645 C-19.14488098 10.79082554 -17.71826149 9.37797961 -16.29125977 7.96557617 C-15.48471451 7.16141769 -14.67816925 6.35725922 -13.84718323 5.5287323 C-9.58856889 1.92634889 -5.59124747 0.00819831 0 0 Z " fill="#E5E5E6" transform="translate(255.375,234.5625)"/>
<path d="M0 0 C1.88568676 0.9411687 3.70755139 2.00834765 5.51171875 3.09765625 C5.51171875 7.09765625 5.51171875 7.09765625 4.42408943 8.68306351 C3.910483 9.19558041 3.39687656 9.70809731 2.8677063 10.23614502 C2.28160583 10.83063446 1.69550537 11.4251239 1.09164429 12.03762817 C0.44023468 12.67779877 -0.21117493 13.31796936 -0.88232422 13.97753906 C-1.90163025 15.00254013 -1.90163025 15.00254013 -2.94152832 16.04824829 C-5.19484585 18.30898776 -7.46226481 20.5549852 -9.73046875 22.80078125 C-11.29582319 24.36375245 -12.86044012 25.92746262 -14.42434692 27.49188232 C-17.70530044 30.76970513 -20.99287385 34.04068987 -24.28564453 37.30664062 C-28.51525138 41.50223956 -32.73154447 45.71091261 -36.9434185 49.92430496 C-40.17349035 53.15383413 -43.40873954 56.37813312 -46.64578629 59.60066986 C-48.20278457 61.1512852 -49.7585581 62.7031313 -51.31310654 64.2562027 C-53.48223191 66.4210126 -55.65780141 68.57911934 -57.83544922 70.73535156 C-58.48281036 71.38361908 -59.13017151 72.0318866 -59.79714966 72.69979858 C-64.25932991 77.09765625 -64.25932991 77.09765625 -66.48828125 77.09765625 C-69.92396195 71.3306208 -72.03554522 66.46579877 -72.15234375 59.71484375 C-69.88752468 50.78879213 -62.22234402 44.38971424 -55.9296875 38.140625 C-54.89701835 37.10593064 -53.86479452 36.07079166 -52.83299255 35.03523254 C-50.68019867 32.87804032 -48.52213554 30.72630513 -46.36010742 28.57836914 C-43.5983517 25.83374691 -40.850344 23.07581412 -38.10612583 20.31367016 C-35.98136761 18.17804334 -33.84948128 16.04964749 -31.71540642 13.92333412 C-30.69938315 12.90930212 -29.685556 11.89306446 -28.67404366 10.8745327 C-27.25816223 9.45098179 -25.83154274 8.03813586 -24.40454102 6.62573242 C-23.59799576 5.82157394 -22.7914505 5.01741547 -21.96046448 4.18888855 C-15.52891629 -1.2515906 -8.01327925 -2.90591445 0 0 Z " fill="#FEFEFF" transform="translate(263.48828125,235.90234375)"/>
</svg>
